<svg width="487" height="403" viewBox="0 0 487 403" fill="none" xmlns="http://www.w3.org/2000/svg">
<path fill-rule="evenodd" clip-rule="evenodd" d="M411.006 100.105L416.979 94.4953L419.927 102.127C420.132 102.657 418.03 101.742 448.92 113.756C449.407 113.949 449.099 113.949 456.61 111.349C457.636 119.559 457.533 119.414 457.866 119.751C459.917 121.798 476.067 137.905 478.374 139.759C482.758 143.394 492.345 117.729 483.143 104.078C464.48 76.5102 440.794 68.252 406.494 65.9165C399.726 65.4832 384.653 68.0112 377.962 69.215C392.985 61.1976 392.318 61.8717 392.267 61.2698L391.78 54.8895L398.137 55.66C398.547 55.66 395.907 57.3453 438.871 30.4038C439.486 30.0186 439.332 30.4038 439.332 22.8197C445.331 21.7604 446.074 21.6641 446.331 21.5678C448.587 20.6769 466.3 13.8392 468.274 12.491C468.517 12.3551 468.695 12.137 468.771 11.8816C468.847 11.6263 468.816 11.3532 468.684 11.1186C461.635 -0.534379 451.099 -1.25667 437.256 1.05466C411.211 5.36434 394.241 21.1103 377.706 40.2992C372.67 46.6241 369.551 54.1122 368.683 61.968C358.659 46.1257 341.484 40.4678 323.77 33.7264C297.7 23.831 239.611 23.229 215.617 39.0232C204.355 46.2076 195.302 56.0467 189.366 67.5537C189.161 67.939 189.11 68.7816 190.315 69.0946C194.596 70.2021 232.971 69.0946 237.432 69.0946C238.047 69.0946 238.073 68.6853 243.302 65.0016C243.661 66.2777 244.097 68.1797 244.328 69.3354C244.376 69.5476 244.503 69.7367 244.686 69.869C244.869 70.0014 245.097 70.0682 245.327 70.0577C285.318 68.5409 282.883 68.7576 283.267 68.3723C283.267 68.3723 287.497 63.8701 289.419 62.0884C289.665 62.7593 289.87 63.4425 290.035 64.1349C291.137 68.6853 290.573 69.3354 291.47 69.6003C299.52 72.0079 316.644 76.8232 325.155 78.7011C299.878 86.2611 284.805 94.5675 269.296 115.225C263.655 123.296 259.254 132.074 256.222 141.3C254.342 141.125 252.452 141.531 250.839 142.455C249.737 143.154 250.121 144.863 250.531 146.043C247.378 145.465 245.661 146.837 246.712 149.847C247.558 152.255 250.249 155.601 250.249 157.311C250.07 157.07 249.634 156.396 249.531 156.275C246.94 154.412 243.712 153.504 240.457 153.723C237.278 153.723 234.689 156.757 232.587 158.177C234.612 152.206 230.946 148.739 221.82 156.805C222.022 156.262 222.084 155.682 221.999 155.112C221.914 154.543 221.686 154.001 221.333 153.531C218.77 151.123 212.617 156.468 210.131 157.864C210.131 156.877 210.925 154.807 208.618 153.723C204.901 151.966 202.261 155.529 199.979 158.539C199.108 155.192 194.596 154.446 191.186 155.722C189.187 156.664 187.629 158.266 186.81 160.221C185.992 162.176 185.971 164.347 186.752 166.315C182.932 164.437 178.395 163.209 178.215 167.254C178.207 168.285 178.336 169.312 178.6 170.312C176.805 169.253 174.037 167.904 172.14 168.795C168.551 170.505 169.576 173.947 171.627 177.174C149.196 177.174 14.0491 179.581 2.4365 180.183C2.22252 180.23 2.03177 180.344 1.89523 180.506C1.75868 180.667 1.68438 180.868 1.68438 181.074C1.68438 181.28 1.75868 181.481 1.89523 181.643C2.03177 181.804 2.22252 181.918 2.4365 181.965C114.615 180.665 316.874 179.557 317.925 180.111C335.87 191.812 302.801 222.847 279.883 227.614C272.692 222.809 265.23 218.373 257.53 214.324C256.889 214.011 256.761 215.022 256.658 215.696C256.555 216.37 256.453 217.092 256.35 218.104C249.75 211.636 241.927 206.378 233.279 202.598C216.206 195.809 205.081 201.274 195.467 215.816C191.339 222.472 187.906 229.487 185.214 236.763C182.892 243.18 180.924 249.705 179.317 256.313C175.191 257.097 170.954 257.227 166.782 256.698C157.195 255.567 143.3 252.148 140.455 253.039C134.969 254.772 130.432 259.009 124.741 260.791C115.635 263.747 105.984 264.93 96.3765 264.268C86.7685 263.605 77.4048 261.112 68.8566 256.939C66.2931 255.783 49.9893 260.599 46.2978 261.321C37.1718 263.054 13.9209 257.661 0.590784 248.32C0.505431 248.28 0.408183 248.27 0.315672 248.291C0.22316 248.311 0.14113 248.361 0.0836053 248.432C0.026081 248.503 -0.00336324 248.591 0.00030576 248.68C0.00397476 248.769 0.0405297 248.855 0.103721 248.921C13.639 258.552 37.0693 264.09 46.5286 262.356C48.8357 261.923 66.5238 257.18 68.267 257.998C76.9628 262.299 86.5006 264.891 96.2983 265.616C106.096 266.34 115.948 265.182 125.253 262.212C131.201 260.358 135.507 256.217 140.993 254.531C143.172 253.857 157.553 257.252 166.628 258.335C170.725 258.893 174.893 258.803 178.959 258.07C177.831 262.669 174.088 278.728 173.832 281.882C173.801 282.047 173.808 282.216 173.852 282.377C173.897 282.539 173.977 282.691 174.088 282.821C174.524 283.206 175.344 283.23 180.779 283.327C179.394 291.272 179.523 290.67 178.907 291.392C176.181 294.03 173.26 296.484 170.166 298.736C168.243 300.228 165.782 302.805 166.885 304.923C167.551 306.151 169.217 306.223 170.678 306.103C170.678 306.753 170.678 308.005 171.345 308.174C172.473 308.414 183.547 308.318 185.444 308.294L187.418 310.702C184.573 315.035 165.551 344.625 166.013 349.657C166.167 351.15 169.269 351.944 170.96 352.378C170.627 353.196 170.294 354.015 169.986 354.641C169.679 355.267 169.73 355.291 169.602 355.484C169.474 355.676 159.809 357.891 155.426 360.877C152.555 362.803 152.862 364.874 154.4 365.692C158.604 367.979 181.727 367.498 183.009 366.222C184.701 364.536 186.008 357.386 186.444 355.074C188.246 355.396 190.103 355.339 191.879 354.906C200.334 348.458 208.189 341.346 215.36 333.646C218.334 335.356 221.487 336.993 224.819 338.462C222.256 341.182 194.801 369.93 194.519 372.024C194.134 374.649 202.209 377.562 204.593 376.189C205.311 375.756 207.157 373.782 235.945 342.747C241.3 344.45 246.808 345.691 252.403 346.455C261.259 347.651 270.192 348.279 279.14 348.333C289.24 353.534 301.442 359.769 309.235 363.718C278.73 399.158 280.191 397.304 280.191 397.979C280.191 399.255 282.216 400.555 283.37 401.229C284.523 401.903 286.728 402.914 287.933 402.312C289.701 401.397 317.028 369.881 318.387 368.316C332.999 375.539 345.406 381.655 348.687 383.172C349.738 383.677 350.61 382.69 351.251 381.751C352.034 380.54 352.703 379.267 353.25 377.947C353.324 377.743 353.32 377.522 353.241 377.321C353.162 377.119 353.011 376.949 352.815 376.839L324.078 361.792L341.689 341.616L427.976 386.615C428.189 386.701 428.424 386.726 428.652 386.687C428.88 386.649 429.091 386.548 429.258 386.398C430.848 384.423 432.158 382.262 433.154 379.969C433.462 379.079 432.949 378.766 432.308 378.38C432.18 378.38 381.192 351.367 348.303 334.032L366.529 313.085C370.935 313.258 375.329 312.529 379.406 310.95C383.482 309.37 387.145 306.977 390.139 303.936C390.395 306.729 390.575 308.944 390.703 310.485C390.726 310.568 390.777 310.641 390.849 310.694C390.921 310.746 391.009 310.775 391.1 310.775C391.191 310.775 391.28 310.746 391.352 310.694C391.424 310.641 391.475 310.568 391.498 310.485C391.344 308.077 391.164 305.67 390.985 303.117C397.676 295.895 400.367 285.181 400.47 275.574C403.16 275.102 405.814 274.467 408.417 273.672C408.519 273.672 408.616 273.634 408.689 273.566C408.761 273.499 408.801 273.407 408.801 273.311C408.801 273.215 408.761 273.123 408.689 273.056C408.616 272.988 408.519 272.95 408.417 272.95C405.923 272.98 403.436 273.205 400.983 273.624C411.595 261.417 430.053 239.917 433.18 236.161C440.871 278.343 441.383 310.34 442.357 313.205C442.357 313.711 443.126 314.096 443.126 312.893C443.138 312.829 443.138 312.764 443.126 312.7C441.87 300.373 440.999 272.131 434.487 234.62C457.226 207.727 456.226 208.473 455.713 207.703C454.688 206.234 450.586 204.958 447.715 204.862C447.433 204.862 447.946 204.356 441.255 212.085C438.512 211.41 434.462 210.64 429.617 209.821C427.515 200.191 425.156 190.729 422.439 180.93C479.067 182.182 476.016 182.398 476.452 181.724L479.246 181.965C479.307 181.979 479.37 181.981 479.431 181.969C479.492 181.957 479.55 181.932 479.599 181.896C479.649 181.86 479.689 181.814 479.716 181.761C479.744 181.708 479.758 181.65 479.758 181.592C479.758 181.533 479.744 181.475 479.716 181.422C479.689 181.37 479.649 181.323 479.599 181.287C479.55 181.251 479.492 181.226 479.431 181.215C479.37 181.203 479.307 181.204 479.246 181.219L476.426 180.978C476.554 177.487 476.016 173.972 472.504 172.768C474.683 171.757 478.246 170.36 476.785 167.784C475.324 165.208 471.658 167.952 470.197 167.784C469.941 166.195 472.76 161.067 467.633 159.863C465.759 159.851 463.885 159.931 462.019 160.104C462.968 158.49 464.839 155.625 464.583 153.868C464.352 152.736 463.327 151.845 460.533 152.495C459.969 152.64 457.969 153.386 456.559 153.723C456.845 153.331 457.085 152.911 457.277 152.471C457.764 150.289 457.342 148.014 456.098 146.115C453.124 141.95 448.792 145.152 445.177 146.717C445.851 145.616 446.221 144.375 446.254 143.106C446.126 140.842 443.408 140.313 441.127 140.939C439.242 141.606 437.417 142.411 435.667 143.346C436.414 142.361 436.739 141.148 436.578 139.948C436.416 138.748 435.78 137.649 434.795 136.87C433.231 135.907 429.284 136.87 427.489 137.52C430.053 133.234 429.13 129.551 427.028 127.576C424.926 125.602 420.081 127.336 417.927 127.143C418.47 126.439 418.942 125.689 419.337 124.904C419.824 122.753 419.401 120.508 418.158 118.644C417.887 118.241 417.506 117.913 417.056 117.693C416.606 117.473 416.101 117.369 415.594 117.392C413.031 117.392 408.647 120.57 407.904 119.8C407.161 119.029 407.904 116.284 405.341 114.984C402.777 113.684 399.778 114.551 399.778 118.716C395.394 109.086 391.139 101.044 387.319 94.399C412.339 100.9 410.544 100.587 411.006 100.105ZM181.881 364.946C179.01 365.572 157.938 365.692 155.144 363.935C154.17 361.719 168.269 357.434 170.063 356.543C170.807 356.158 171.524 353.774 171.909 352.546C176.368 353.63 180.898 354.434 185.47 354.954C184.88 356.688 183.06 363.549 181.881 364.946ZM378.808 41.1178C395.343 22.4345 412.339 6.95339 437.589 2.83632C450.15 0.789823 459.866 1.05466 466.505 11.3112C463.096 13.0447 449.279 18.5341 445.69 19.8343L438.204 21.1826C437.985 21.2257 437.787 21.337 437.643 21.4986C437.499 21.6602 437.417 21.8627 437.41 22.0734V29.1759L398.035 54.3599C390.677 53.5653 390.908 53.4931 390.575 53.782C390.242 54.0709 390.318 53.782 390.985 61.005C389.242 61.968 381.141 66.374 375.143 69.7206C368.657 70.9244 370.144 70.78 368.965 70.6596C369.016 60.4512 371.836 48.9908 378.808 41.1178ZM292.47 68.2038C292.195 65.5201 291.549 62.8816 290.547 60.3549C290.487 60.2433 290.4 60.1462 290.293 60.071C290.187 59.9959 290.063 59.9448 289.932 59.9215C289.343 59.9215 288.881 60.2827 288.394 60.716C286.753 62.1847 283.267 65.8925 282.19 66.9037L246.045 68.1557C245.814 67.0722 245.174 64.2553 244.789 63.1959C244.745 63.0636 244.669 62.9426 244.567 62.842C244.465 62.7413 244.341 62.6637 244.202 62.615C244.064 62.5663 243.916 62.5478 243.769 62.5608C243.622 62.5739 243.48 62.6181 243.354 62.6903C242.559 63.0755 237.765 66.6629 237.047 67.1926C230.408 67.3852 198.21 68.1797 191.648 67.4334C197.453 56.6312 206.079 47.3871 216.719 40.5641C239.765 25.4682 297.238 25.4682 323.181 35.0987C341.33 41.8401 358.531 47.2814 368.503 63.533C368.227 65.8755 368.09 68.2306 368.093 70.5874C365.658 70.4188 367.35 70.9485 363.248 68.3483C340.177 53.7339 287.779 38.4213 261.272 45.7887C261.172 45.8167 261.087 45.8798 261.035 45.9648C260.982 46.0498 260.966 46.1505 260.99 46.2461C261.4 47.6185 269.732 41.6957 303.339 48.4611C322.642 52.3134 348.534 60.692 364.171 70.4188C352.251 70.2503 343.304 73.3321 327.59 77.8825C319.771 76.2453 300.058 70.467 292.47 68.2038ZM270.834 116.164C288.01 93.0748 304.929 85.6592 333.819 77.4251C342.766 74.8489 352.609 71.3578 362.018 71.3097C365.016 71.1879 368.02 71.333 370.99 71.743C370.99 71.743 371.451 71.743 371.374 71.8875C371.77 75.6265 371.106 79.3973 369.452 82.8182C367.175 88.08 364.083 92.9967 360.274 97.4085C350.302 109.447 346.098 113.973 332.255 122.304C330.794 122.015 325.334 120.57 323.95 120.185C323.824 120.152 323.692 120.147 323.564 120.168C323.435 120.19 323.314 120.238 323.208 120.31C323.102 120.382 323.015 120.474 322.953 120.582C322.89 120.69 322.854 120.809 322.847 120.931L322.104 131.404C312.696 134.992 294.341 142.672 286.805 148.98C284.241 143.322 283.959 140.24 282.421 140.24C281.447 140.24 281.447 140.385 278.448 151.845C274.577 153.555 258.376 160.633 254.12 161.211C252.813 157.551 258.786 132.223 270.834 116.164ZM367.58 110.915C365.017 109.76 361.095 111.686 358.762 113.01C359.787 111.301 361.325 108.46 359.326 107.569C356.947 107.004 354.427 107.332 352.302 108.484C354.994 105.57 357.736 102.272 361.146 98.0826C364.004 94.6206 366.477 90.8935 368.529 86.9593C369.016 92.2802 369.964 102.103 371.22 114.792C369.915 114.826 368.635 115.139 367.478 115.707C368.247 114.551 370.195 112.143 367.58 110.915ZM173.626 177.15C171.806 174.742 170.038 171.54 172.832 170.216C173.694 169.995 174.613 170.099 175.395 170.505C176.853 171.149 178.221 171.958 179.471 172.912C179.616 173.013 179.791 173.069 179.971 173.07C180.152 173.071 180.328 173.018 180.474 172.918C180.62 172.819 180.728 172.678 180.783 172.517C180.838 172.355 180.836 172.182 180.779 172.021C180.1 170.365 179.803 168.593 179.907 166.821C179.907 166.58 179.907 166.387 180.24 166.315C181.179 166.137 182.153 166.229 183.035 166.58C184.57 167.091 186.041 167.761 187.418 168.578C187.551 168.65 187.701 168.688 187.854 168.688C188.007 168.688 188.157 168.65 188.29 168.578C189.597 167.784 186.854 164.871 188.29 160.85C188.545 160.038 188.987 159.29 189.585 158.657C190.183 158.025 190.923 157.524 191.75 157.19C194.647 156.107 198.518 156.709 198.544 159.863V160.537C198.54 160.683 198.585 160.827 198.671 160.949C198.757 161.072 198.88 161.166 199.025 161.221C199.169 161.276 199.328 161.288 199.48 161.257C199.632 161.225 199.771 161.15 199.877 161.042C201.799 159.237 204.491 153.531 207.926 155.12C208.977 155.625 208.669 156.468 208.593 157.527C208.516 158.587 208.926 159.742 209.951 159.622C211.592 159.429 221.359 150.617 220.436 156.227C220.228 157.274 219.883 158.293 219.41 159.261C219.355 159.408 219.354 159.568 219.406 159.716C219.459 159.864 219.563 159.991 219.702 160.077C219.841 160.163 220.006 160.203 220.171 160.19C220.337 160.177 220.493 160.113 220.615 160.007C222.743 157.768 229.254 151.99 231.356 153.964C231.997 154.566 231.51 157.118 231.203 157.985C231.014 158.288 230.79 158.57 230.536 158.827C230.075 159.478 230.305 160.2 231.151 160.2C233.997 160.2 236.97 155.144 240.431 155.144C243.327 154.949 246.203 155.716 248.557 157.311C248.814 157.551 249.89 159.959 250.916 158.972C252.838 157.19 249.89 153.627 248.352 150.858C247.814 149.847 246.917 147.897 248.045 147.439C249.01 147.188 250.035 147.239 250.967 147.584C251.428 148.475 252.249 149.991 253.12 149.269C253.992 148.547 253.736 147.487 251.89 146.669C251.644 146.115 251.446 145.544 251.3 144.959C251.3 144.622 251.095 143.756 251.3 143.563C252.596 142.83 254.098 142.486 255.607 142.576C254.453 145.995 250.019 160.2 252.685 162.728C253.041 163.01 253.502 163.148 253.966 163.113C257.76 162.945 276.141 154.879 279.601 153.482C280.319 153.17 279.909 153.314 282.524 143.852C284.908 149.727 285.241 151.388 286.446 151.412C287.651 151.436 287.035 149.558 300.75 142.672C311.312 137.375 323.206 132.849 323.206 132.849C323.366 132.792 323.506 132.694 323.61 132.566C323.714 132.439 323.779 132.287 323.796 132.127L324.334 122.207C332.025 124.157 332.281 124.23 332.717 123.965C339.14 120.243 345.039 115.778 350.277 110.675C352.84 109.326 356.814 107.737 358.762 108.652C360.069 109.278 357.403 113.467 356.403 114.623C356.342 114.724 356.318 114.841 356.335 114.956C356.351 115.071 356.408 115.178 356.495 115.26C356.582 115.342 356.696 115.394 356.818 115.41C356.941 115.425 357.065 115.403 357.173 115.345C358.429 114.479 364.35 110.819 366.965 112.047C369.58 113.275 364.273 116.501 365.888 117.512C366.375 117.801 366.991 117.392 367.529 117.055C368.646 116.427 369.919 116.087 371.22 116.068C372.707 130.754 374.553 149.125 376.527 168.699C372.205 169.708 368.238 171.758 365.017 174.646C360.906 174.296 356.766 174.908 352.968 176.427C351.635 176.957 351.943 178.137 353.276 178.113C352.968 178.113 354.045 178.113 355.84 178.546C356.506 178.353 214.694 177.27 173.626 177.15ZM369.298 227.951C369.298 227.951 370.144 228.36 371.246 228.962C366.632 231.851 356.48 237.028 355.532 238.785C355.415 239.038 355.392 239.32 355.466 239.586C355.541 239.853 355.708 240.088 355.942 240.254C356.583 240.928 356.429 240.422 356.327 241.361V245.527C356.071 247.684 355.59 249.813 354.891 251.883C353.72 252.147 352.49 252.055 351.379 251.618C345.098 249.042 341.51 244.732 342.176 238.28C345.355 238.713 347.175 239.219 347.79 239.267C348.405 239.315 350.072 238.256 348.123 237.557C346.944 237.148 346.995 223.93 348.508 224.556C348.601 224.573 348.698 224.56 348.781 224.518C348.865 224.476 348.93 224.408 348.967 224.326C349.003 224.243 349.008 224.152 348.98 224.066C348.953 223.981 348.894 223.907 348.816 223.858C351.379 220.198 351.379 220.27 351.379 219.765C351.344 219.642 351.279 219.529 351.19 219.433C351.101 219.337 350.991 219.261 350.866 219.211C349.895 218.719 349.075 217.999 348.487 217.122C347.898 216.244 347.561 215.239 347.508 214.203C347.384 212.643 347.576 211.074 348.072 209.581C349.051 210.01 350.126 210.213 351.205 210.171C352.285 210.129 353.338 209.844 354.276 209.34C353.737 210.375 353.148 211.603 353.917 212.47C354.514 213.048 355.297 213.425 356.145 213.542C356.993 213.66 357.859 213.511 358.608 213.12C358.655 213.102 358.698 213.076 358.735 213.043C358.771 213.01 358.8 212.971 358.821 212.927C358.841 212.884 358.852 212.837 358.853 212.789C358.854 212.742 358.844 212.695 358.826 212.65C358.807 212.606 358.78 212.566 358.745 212.531C358.71 212.497 358.668 212.47 358.621 212.451C358.575 212.432 358.525 212.422 358.474 212.421C358.424 212.42 358.373 212.428 358.326 212.446C357.29 212.483 356.275 212.157 355.481 211.531C356.194 209.863 357.051 208.252 358.044 206.715C360.787 207.992 360.608 206.715 360.3 208.016C359.557 214.035 366.863 215.961 371.297 211.964C372.033 211.238 372.67 210.429 373.194 209.556C373.93 209.697 374.692 209.648 375.399 209.412C376.809 210.255 376.629 209.773 376.553 210.495C376.502 210.837 376.546 211.185 376.681 211.505C376.815 211.826 377.036 212.108 377.322 212.325C377.374 212.604 377.374 212.889 377.322 213.168C373.528 215.166 373.758 213.987 373.117 215.792C371.759 216.466 371.81 217.839 371.477 219.067C371.323 219.62 369.682 225.086 369.041 227.06C368.989 227.212 368.986 227.375 369.032 227.529C369.077 227.683 369.17 227.822 369.298 227.927V227.951ZM357.429 241.578C358.845 242.553 359.845 243.97 360.249 245.575C360.608 247.26 360.249 247.669 360.608 248.247C360.733 248.428 360.911 248.57 361.12 248.657C359.682 249.816 358.066 250.765 356.327 251.474C356.86 249.568 357.246 247.629 357.48 245.671C357.583 244.804 357.352 242.999 357.429 241.554V241.578ZM357.429 239.171C360.3 236.763 371.964 229.997 373.399 228.168C375.22 229.203 377.962 230.792 379.68 231.948C374.553 235.8 367.914 240.76 362.171 245.792C361.812 242.469 359.915 241.386 357.531 239.243L357.429 239.171ZM303.057 286.697C310.7 286.37 318.317 285.639 325.872 284.506C329.231 290.07 333.398 295.167 338.254 299.65C343.32 304.037 349.079 307.66 355.327 310.389C351.558 316.648 345.355 325.051 339.023 329.12L321.745 320.043C319.976 314.433 319.335 309.474 317.413 304.056C316.288 300.342 314.066 297.003 311.004 294.426C308.774 292.211 303.314 287.203 302.955 286.746C302.596 286.288 302.929 286.818 303.057 286.697ZM325.283 282.773C319.797 283.543 305.031 285.181 299.955 284.771C300.969 275.583 301.354 266.342 301.109 257.107C304.954 260.213 310.158 264.33 315.157 268.471C313.013 269.094 311.153 270.374 309.876 272.107C309.716 272.411 309.632 272.745 309.631 273.084C309.63 273.424 309.712 273.758 309.87 274.063C310.029 274.368 310.259 274.634 310.545 274.842C310.83 275.05 311.163 275.193 311.517 275.261C311.882 275.31 312.253 275.31 312.619 275.261C312.509 275.604 312.482 275.966 312.539 276.32C312.597 276.674 312.738 277.011 312.952 277.308C313.329 277.862 313.874 278.298 314.516 278.56C314.796 278.608 315.082 278.608 315.362 278.56C315.299 278.797 315.299 279.045 315.362 279.282C315.875 283.23 320.002 281.136 323.95 279.811C325.898 279.186 325.872 279.282 327.077 280.197L325.283 282.773ZM345.996 237.028C343.139 236.344 340.202 236.004 337.254 236.016C336.075 236.016 336.203 236.281 336.254 236.016C336.69 232.838 338.408 223.978 340.715 221.571L347.636 223.978C345.944 225.928 345.201 233.729 345.944 237.124L345.996 237.028ZM345.996 222.582C345.175 222.197 341.535 220.535 340.869 220.174C340.202 219.813 339.92 220.174 339.382 220.824L338.536 220.68L345.611 213.312C345.562 214.54 345.809 215.762 346.332 216.888C346.856 218.013 347.644 219.013 348.636 219.813L345.996 222.582ZM338.536 221.763C336.928 224.47 335.802 227.406 335.203 230.455C334.611 232.832 334.2 235.246 333.973 237.678C333.966 237.802 333.986 237.926 334.032 238.043C334.078 238.159 334.148 238.266 334.239 238.356C334.331 238.446 334.44 238.518 334.562 238.567C334.684 238.616 334.815 238.641 334.947 238.641C336.522 237.865 338.344 237.651 340.074 238.039C339.769 240.493 340.14 242.98 341.151 245.262C333.115 252.955 324.653 260.245 315.798 267.099L300.955 255.807C300.955 252.966 300.955 250.366 300.75 248.271C300.519 242.83 300.366 242.782 299.648 242.012C297.665 240.134 295.531 238.404 293.265 236.835C306.005 229.684 323.514 219.837 338.664 221.811L338.536 221.763ZM325.59 278.271C323.873 278.271 319.771 280.124 317.592 280.076C317.131 280.076 317.003 279.547 316.977 279.113C318.592 277.283 322.95 276.706 322.95 275.237C322.95 275.237 322.514 274.057 321.54 274.467C319.463 275.439 317.302 276.245 315.08 276.874C314.886 276.726 314.721 276.546 314.593 276.344C314.388 275.983 314.593 275.911 314.593 275.815C316.512 274.589 318.61 273.632 320.822 272.974C321.033 272.863 321.194 272.685 321.275 272.472C321.357 272.259 321.354 272.025 321.266 271.814C321.179 271.603 321.013 271.428 320.8 271.323C320.586 271.217 320.339 271.188 320.104 271.24C317.285 272.131 317.182 272.468 314.977 273.07C314.285 273.239 311.85 273.913 311.542 273.311C311.235 272.709 312.927 271.505 313.644 271.12C316.497 269.599 319.677 268.702 322.95 268.496C325.821 268.496 326.103 268.664 332.102 272.661L327.564 279.402C327.041 278.848 326.354 278.454 325.59 278.271ZM326.641 267.605C323.93 266.801 321.021 266.801 318.31 267.605C326.623 261.051 334.507 254.032 341.92 246.586C343.927 249.668 346.965 252.039 350.559 253.327C351.656 253.773 352.852 253.963 354.045 253.881C350.225 261.73 339.074 266.112 336.485 269.988L335.434 269.386C335.229 269.268 334.983 269.23 334.749 269.279C334.514 269.329 334.309 269.462 334.178 269.651L332.691 271.866C330.41 270.133 327.59 268.11 326.641 267.629V267.605ZM372.784 199.613C372.784 200.432 372.092 200.961 372.118 202.021C372.113 202.42 372.194 202.815 372.357 203.184C372.52 203.552 372.761 203.885 373.066 204.163C373.442 204.44 373.845 204.682 374.271 204.886C374.466 204.95 374.642 205.057 374.784 205.199C374.434 205.969 374.193 206.778 374.066 207.606H373.861C374.297 206.33 374.04 205.199 373.169 204.813C369.794 203.362 366.069 202.781 362.376 203.128C361.71 203.128 360.89 205.126 360.659 205.801C359.862 205.342 358.998 204.993 358.095 204.765C358.557 203.61 358.377 202.647 357.608 202.165C355.712 201.115 353.595 200.466 351.405 200.263L351.943 198.963C352.586 198.703 353.131 198.266 353.507 197.711C354.096 196.965 355.122 195.087 355.455 195.303C356.224 195.52 357.096 196.892 359.069 195.448C359.747 194.845 360.373 194.193 360.941 193.498C361.716 193.968 362.521 194.394 363.351 194.774C364.966 195.111 366.119 193.69 366.786 193.473C367.119 193.859 367.683 194.581 367.837 194.725C368.258 195.017 368.746 195.214 369.261 195.302C369.776 195.389 370.306 195.365 370.81 195.231C370.298 197.591 371.579 197.976 372.759 199.637L372.784 199.613ZM377.065 183.048C372.084 181.058 366.94 179.448 361.684 178.233C360.633 178.016 353.379 177.246 353.122 177.198L353.43 177.029C357.699 175.464 362.372 175.145 366.837 176.114C376.194 178.522 391.703 185.312 397.086 192.968C398.988 195.386 400.516 198.044 401.623 200.865C399.133 198.904 396.803 196.771 394.651 194.485C389.741 189.515 383.729 185.62 377.04 183.072L377.065 183.048ZM396.958 186.034C396.958 187.117 396.676 188.177 396.548 189.236C390.062 182.519 374.579 176.066 366.299 174.598C375.348 167.856 385.448 168.362 391.395 172.888C393.357 174.519 394.881 176.562 395.843 178.85C396.805 181.139 397.179 183.608 396.932 186.058L396.958 186.034ZM320.617 179.798C358.839 179.798 355.404 179.798 355.122 180.039H353.891C352.435 180.335 351.126 181.081 350.174 182.158C348.816 184.132 349.2 184.06 349.328 185.697C348.84 186.119 348.41 186.596 348.047 187.117C347.606 187.741 347.358 188.467 347.331 189.216C347.304 189.964 347.498 190.704 347.893 191.355C347.662 191.884 347.175 192.414 346.97 192.992C346.849 193.278 346.816 193.589 346.875 193.892C346.934 194.194 347.082 194.475 347.303 194.701C347.481 194.835 347.669 194.956 347.867 195.062C347.958 195.099 348.038 195.157 348.098 195.231C347.97 195.713 347.636 196.074 347.534 196.555C347.496 196.899 347.555 197.246 347.703 197.563C347.851 197.879 348.084 198.154 348.38 198.361C348.941 198.753 349.542 199.092 350.174 199.372L349.867 200.143H347.995C347.483 200.143 346.739 201.346 346.508 201.78C345.799 202.778 345.42 203.951 345.42 205.15C345.42 206.35 345.799 207.523 346.508 208.521C346.108 209.591 345.824 210.696 345.662 211.82L337.023 220.68C329.687 220.406 322.372 221.604 315.567 224.195C307.257 227.356 299.276 231.233 291.727 235.776C288.625 233.561 285.036 231.105 281.908 229.058C304.57 223.28 336.947 193.498 320.617 179.798ZM257.504 215.166C265.912 219.38 293.829 238.328 298.263 243.023C298.751 243.576 298.802 243.023 299.007 248.368C299.315 256.698 299.391 275.935 298.058 284.097C297.315 283.543 258.145 254.628 255.889 253.087C255.735 249.379 256.735 219.115 257.504 215.166ZM168.807 304.249C168.628 304.249 168.5 304.249 168.423 304.105C168.346 303.96 168.423 303.142 168.781 302.636C170.217 300.228 173.498 298.615 178.061 294.33C179.134 293.424 180.006 292.327 180.625 291.103C180.958 289.9 181.522 284.795 181.676 283.351H196.57C195.725 287.564 194.656 291.734 193.365 295.846C189.725 297.532 172.857 305.092 168.807 304.249ZM189.315 307.331C187.11 307.331 173.447 307.62 171.371 307.331C171.28 306.861 171.28 306.38 171.371 305.91C176.471 304.811 181.431 303.196 186.162 301.095H193.852C192.314 303.021 190.853 305.14 189.392 307.331H189.315ZM208.387 282.171C203.266 287.765 198.588 293.703 194.391 299.939L188.11 300.06C191.52 298.567 194.058 297.315 194.391 297.171C194.668 297.003 194.883 296.759 195.006 296.472C196.207 292.116 197.114 287.694 197.723 283.23C200.953 283.23 202.107 283.23 202.415 282.46C203.235 280.775 218.206 254.435 220.615 250.27C221.436 250.27 219.821 248.97 232.074 263.945C244.276 260.911 255.325 260.743 272.039 267.003L277.73 271.24C266.963 266.69 255.299 263.03 243.379 263.656C238.351 263.904 233.365 264.663 228.511 265.919C220.769 269.82 214.514 276.056 208.464 282.171H208.387ZM216.616 332.178C225.794 322.74 233.715 313.856 240.252 307.644H253.889C244.199 317.876 234.509 328.157 226.05 337.137C222.838 335.643 219.715 333.988 216.693 332.178H216.616ZM203.542 374.576C200.959 374.652 198.443 373.79 196.518 372.169C199.338 367.907 229.664 335.861 256.376 307.499H266.63C212.028 365.812 204.235 374.167 203.542 374.576ZM237.278 341.279C246.532 331.287 257.299 319.73 268.63 307.572C272.27 307.572 274.808 307.716 275.807 307.861C283.857 321.825 301.263 327.122 317.977 329.192L331.691 336.415C324.037 340.402 315.742 343.191 307.133 344.673C284.985 348.742 254.812 346.768 237.278 341.279ZM332.127 337.089L314.977 357.001L296.597 347.37C309.067 346.275 321.163 342.775 332.127 337.089ZM281.857 348.285C286.292 348.285 290.419 347.996 294.29 347.635L313.901 358.132L310.312 362.297L281.857 348.285ZM351.071 377.995C350.581 379.159 349.935 380.259 349.149 381.27C346.944 380.234 334.024 373.902 319.643 366.824L323.027 362.971L351.071 377.995ZM286.984 400.579C285.204 400.144 283.589 399.252 282.319 398.003C282.472 397.786 305.39 371.085 334.204 337.619L340.151 340.725C303.032 382.883 288.727 399.206 286.984 400.579ZM431.104 379.801C430.295 381.475 429.343 383.086 428.258 384.616C420.568 381.101 282.139 307.572 276.499 306.344C273.68 305.67 243.712 306.344 240.431 306.344L246.378 300.614C249.48 300.614 278.499 300.614 280.857 301.191C288.548 303.31 430.155 379.801 431.078 379.801H431.104ZM346.79 333.189L340.817 330.107C347.175 325.701 353.199 317.515 357.044 311.087C359.415 311.947 361.884 312.545 364.402 312.868C364.76 312.892 365.504 311.978 346.765 333.189H346.79ZM394.651 294.883C392.146 299.971 388.097 304.251 383.013 307.186C367.632 315.998 353.097 309.594 339.433 298.278C334.612 293.807 330.48 288.726 327.154 283.182L335.126 271.264C358.993 284.53 356.532 282.773 362.607 286.071C363.094 286.312 363.633 286.577 364.914 287.275L367.606 288.792C369.452 289.803 368.965 290.044 369.529 290.068C370.528 290.068 369.529 288.238 367.965 286.986C365.971 285.635 363.777 284.564 361.454 283.808C366.183 276.225 371.37 268.902 376.988 261.875C377.053 261.798 377.082 261.7 377.07 261.603C377.058 261.506 377.006 261.418 376.924 261.357C376.843 261.296 376.739 261.269 376.635 261.28C376.532 261.291 376.438 261.34 376.373 261.417C370.528 268.38 365.119 275.655 360.172 283.206C357.019 281.738 340.741 272.444 337.716 270.711C340.1 267.075 351.789 262.356 355.429 253.616C361.3 252.268 367.324 245.623 370.81 241.024L380.552 232.983C385.37 236.131 389.231 240.405 391.754 245.382C396.151 254.465 398.524 264.298 398.727 274.274C399.159 281.352 397.761 288.423 394.651 294.883ZM447.715 205.584C449.715 205.584 454.098 206.86 454.816 208.16C454.995 208.425 450.74 214.203 400.393 271.987C400.209 268.678 399.764 265.386 399.06 262.139C425.925 230.936 446.972 206.451 447.741 205.584H447.715ZM440.025 213.192C431.539 222.823 416.389 240.109 398.675 260.358C397.34 255.052 395.451 249.883 393.036 244.925C390.395 239.879 386.413 235.558 381.474 232.381C381.58 232.235 381.622 232.057 381.594 231.883C381.565 231.709 381.468 231.551 381.321 231.442C379.27 230.166 375.63 228.432 373.63 227.397C373.576 227.369 373.515 227.354 373.453 227.353C373.391 227.352 373.33 227.365 373.275 227.391C373.219 227.417 373.171 227.456 373.135 227.503C373.099 227.55 373.075 227.604 373.066 227.662L371.015 226.603L372.682 221.787C373.288 222.185 373.992 222.431 374.727 222.503C375.463 222.574 376.206 222.469 376.886 222.197C377.196 221.986 377.472 221.735 377.706 221.45C378.428 221.867 379.248 222.109 380.093 222.155C380.939 222.201 381.783 222.05 382.551 221.715C383.631 221.072 384.514 220.175 385.115 219.115C385.679 218.344 385.781 218.2 387.268 218.224C388.706 218.435 390.176 218.116 391.37 217.333C392.697 216.042 393.434 214.313 393.42 212.518C394.734 212.012 395.849 211.136 396.611 210.011C397.373 208.885 397.745 207.566 397.676 206.234C407.212 207.558 430.54 210.857 440.025 213.264V213.192ZM401.572 116.597C402.111 115.418 403.315 115.755 404.546 116.333C405.776 116.91 405.802 117.97 406.007 119.174C407.135 125.361 414.62 116.429 416.774 119.487C417.764 121.033 418.102 122.871 417.722 124.639C417.223 125.475 416.666 126.279 416.056 127.047C415.945 127.172 415.885 127.329 415.885 127.492C415.885 127.655 415.945 127.812 416.056 127.937C418.055 129.815 423.593 126.637 425.695 128.636C426.54 129.587 427.074 130.748 427.234 131.978C427.393 133.208 427.17 134.456 426.592 135.57C425.848 137.327 424.182 138.868 424.592 139.687C425.003 140.505 425.49 140.289 426.079 139.687C426.669 139.085 432.642 137.448 433.77 138.098C434.088 138.34 434.346 138.644 434.528 138.989C434.709 139.334 434.809 139.712 434.821 140.096C435.051 142.215 433.847 142.696 433.154 143.635C432.462 144.574 432.872 145.297 433.847 145.297C437.077 145.297 440.999 141.035 444.101 142.528C444.895 142.913 444.101 145.2 443.434 146.115C442.768 147.03 442.204 147.367 442.46 148.065C442.973 149.462 445.844 148.065 447.228 147.367C450.073 145.947 452.714 144.454 454.508 146.982C455.479 148.508 455.817 150.317 455.457 152.062C455.329 152.544 454.098 153.892 453.996 154.47C453.791 155.505 455.098 155.649 456.175 155.457C458.405 155.072 462.635 153.049 462.711 154.301C462.711 156.059 459.687 160.055 459.687 161.042C459.712 161.268 459.826 161.477 460.006 161.628C460.186 161.779 460.419 161.862 460.661 161.861C460.917 161.861 466.787 161.404 467.146 161.5C471.171 162.439 466.993 167.23 468.89 169.012C470.12 170.192 472.325 169.012 474.196 168.458C474.401 168.458 475.042 168.265 475.144 168.458C475.837 169.782 472.299 170.866 470.863 171.612C469.428 172.358 469.479 173.755 470.402 174.02C470.844 174.079 471.293 174.079 471.735 174.02C474.298 174.814 474.657 177.559 474.58 180.087C470.966 179.918 421.747 178.353 421.567 178.353C416.164 159.12 409.39 140.25 401.29 121.87C401.066 120.11 401.161 118.327 401.572 116.597ZM424.464 196.05C419.161 196.612 413.897 197.464 408.699 198.602C407.212 198.963 405.905 199.372 404.828 199.685C404.726 199.704 404.636 199.761 404.578 199.842C404.521 199.923 404.5 200.023 404.52 200.119C404.541 200.214 404.601 200.299 404.687 200.353C404.774 200.407 404.88 200.427 404.982 200.407L407.391 200.239C411.669 199.865 415.911 199.189 420.081 198.216C421.627 197.807 423.149 197.325 424.644 196.772C425.703 200.865 426.712 205.062 427.669 209.364C423.439 208.69 402.7 205.776 397.291 205.078C397.258 204.644 397.079 204.231 396.778 203.899C397.382 202.789 397.846 201.617 398.163 200.407C399.094 201.311 400.125 202.118 401.239 202.815C402.393 203.273 404.11 202.406 403.367 199.902C402.054 196.858 400.331 193.986 398.24 191.355C398.368 189.693 398.675 188.056 398.881 186.323C399.253 182.86 398.465 179.375 396.626 176.354C394.788 173.333 391.991 170.926 388.627 169.469C385.537 168.38 382.22 167.976 378.937 168.29C378.321 162.487 377.706 156.516 377.065 150.69C378.11 150.701 379.154 150.653 380.193 150.545C385.371 149.942 390.473 148.854 395.42 147.295C395.522 147.276 395.612 147.219 395.669 147.138C395.727 147.057 395.748 146.957 395.727 146.861C395.707 146.766 395.647 146.681 395.56 146.627C395.474 146.573 395.368 146.553 395.266 146.573C389.072 147.047 382.947 148.12 376.988 149.775C372.733 110 371.067 98.6846 370.221 83.4201C371.205 81.0201 371.86 78.512 372.169 75.9564C376.096 81.3718 379.526 87.0904 382.423 93.0507C382.602 93.3877 382.782 93.3396 384.704 93.8452C402.598 124.182 415.697 161.476 424.464 196.098V196.05ZM383.448 92.1599C380.345 85.956 376.602 80.0531 372.271 74.5359C372.338 73.5865 372.286 72.6331 372.118 71.6949C372.079 71.5784 372.009 71.4732 371.915 71.389C371.82 71.3048 371.705 71.2443 371.579 71.2134C379.09 69.8651 398.65 66.5907 406.34 67.1926C440.23 69.7929 463.429 78.2437 481.374 105.041C487.09 113.54 485.065 128.491 480.784 136.051C480.379 136.799 479.861 137.488 479.246 138.098C476.426 135.69 462.096 121.244 459.43 118.692L458.328 109.952C458.306 109.817 458.252 109.688 458.171 109.574C458.09 109.46 457.984 109.364 457.859 109.293C457.735 109.222 457.595 109.178 457.45 109.162C457.305 109.147 457.159 109.162 457.021 109.206L449.33 111.999L421.491 101.285C417.927 92.2802 418.184 92.4969 417.543 92.3765C416.902 92.2562 417.21 92.1839 410.262 98.829L383.448 92.1599Z" fill="#BC9900" fill-opacity="0.75"/>
</svg>
